<svg id="Layer_1" data-name="Layer 1" xmlns="http://www.w3.org/2000/svg" viewBox="0 0 150 150"><defs><style>.cls-1{fill:#a100ff;fill-rule:evenodd;}</style></defs><path class="cls-1" d="M132.36,78.64a64.52,64.52,0,0,1-5,20.49l-.46.46H110.05c0,1.36.45,2.27.45,3.64v1.82h13.66l-.91.91a58.14,58.14,0,0,1-39.16,26.86H82.73l.45-.91a150.15,150.15,0,0,0,8.2-13.2,28.51,28.51,0,0,1-5.47-2.28,112.36,112.36,0,0,1-10.47,16.85l-.45.45H72.71v-.45A141.72,141.72,0,0,1,56.77,106v-.91H79.08v-1.82a9.89,9.89,0,0,1,.46-3.64h-25v-.46A67.42,67.42,0,0,1,52.22,90a16.91,16.91,0,0,1-4.55.46H46.3c.91,2.73,1.37,5.46,2.28,8.2v.91H21.26l-.45-.46a75.12,75.12,0,0,1-5.47-20.49v-.91H32.19c0-.91-.46-1.82-.46-2.73s.46-1.82.46-2.73H15.34v-.46A58.19,58.19,0,0,1,23.54,44v-.46h26l-.46.91c-1.36,5-2.73,10-3.64,15h5.47A66.25,66.25,0,0,1,55.41,44v-.46H92.29l.45.46a83.05,83.05,0,0,1,5,27.77v.46H63.15v5.46h34.6v.91c-.45,2.73-.91,5.92-1.36,9.11a12.11,12.11,0,0,1,5.46,1.36c.45-3.64.91-7.28,1.37-10.47v-.91h29.14Zm-68.3,54.18C47.67,130.09,33.55,120.08,24.45,106l-.46-.91H50.86v.46a112.32,112.32,0,0,0,13.65,26.4l.92.91ZM28.55,37.21a56.7,56.7,0,0,1,34.6-19.58l1.36-.45-.91,1.36A83.59,83.59,0,0,0,51.77,37.67v.45H27.64Zm43.7-20.49h.92a.85.85,0,0,1,1.36,0h.91A87,87,0,0,1,89.56,37.21l.45.91H57.69l.45-.91A102.75,102.75,0,0,1,72.25,16.72Zm58.28,42.8a57.44,57.44,0,0,1,1.83,12.29v.46H103.22v-.46a78.23,78.23,0,0,0-4.56-27.32v-.91h5.92V38.12H96.39l-.46-.45A81.76,81.76,0,0,0,84.55,18.54l-1.37-1.36,1.82.45A50.75,50.75,0,0,1,108.68,28.1,41.46,41.46,0,0,1,113.23,24,65.36,65.36,0,0,0,74.08,10.8H71.34C36.29,12.17,9.88,39.49,9.88,73.63c0,35.06,26.41,63.75,60.55,65.57h6.83a64.42,64.42,0,0,0,61-64.2,55.93,55.93,0,0,0-2.73-17.76A16.81,16.81,0,0,1,130.53,59.52ZM47.75,80.77a5.93,5.93,0,1,1,5.92-5.92A6,6,0,0,1,47.75,80.77Zm0-17.32a11.4,11.4,0,1,0,11.39,11.4A11.29,11.29,0,0,0,47.75,63.45Zm46.8,45.65a5.93,5.93,0,0,1,0-11.85,5.93,5.93,0,1,1,0,11.85Zm0-17.32a11.4,11.4,0,0,0,0,22.79,11.4,11.4,0,0,0,0-22.79Zm30.1-61.35a10.1,10.1,0,0,1,10,10,10.24,10.24,0,1,1-10-10Zm0,25.94a15.74,15.74,0,0,0,15.47-15.93A15.34,15.34,0,0,0,124.65,25a15.73,15.73,0,0,0-15.93,15.47A16.12,16.12,0,0,0,124.65,56.37Z"/></svg>