<svg id="Layer_1" data-name="Layer 1" xmlns="http://www.w3.org/2000/svg" viewBox="0 0 150 150"><title>Accenture Renewable</title>
<desc>Accenture Renewable</desc>
<metadata><?xpacket begin="﻿" id="W5M0MpCehiHzreSzNTczkc9d"?>
<x:xmpmeta xmlns:x="adobe:ns:meta/" x:xmptk="Adobe XMP Core 8.0-c001 1.000000, 0000/00/00-00:00:00        ">
   <rdf:RDF xmlns:rdf="http://www.w3.org/1999/02/22-rdf-syntax-ns#">
      <rdf:Description rdf:about=""
            xmlns:ns1="http://ns.accenture.com/1.0/"
            xmlns:dc="http://purl.org/dc/elements/1.1/"
            xmlns:Iptc4xmpCore="http://iptc.org/std/Iptc4xmpCore/1.0/xmlns/">
         <ns1:campaignAsset>no</ns1:campaignAsset>
         <ns1:contentOwner>Accenture</ns1:contentOwner>
         <ns1:rightsManagedAsset>no</ns1:rightsManagedAsset>
         <ns1:reviewDate>2023-04-28T14:04:03.894-03:00</ns1:reviewDate>
         <ns1:contentOwnerTeam>Accenture</ns1:contentOwnerTeam>
         <dc:format>image/svg+xml</dc:format>
         <dc:modified>2022-10-28T17:12:31.386Z</dc:modified>
         <dc:description>
            <rdf:Alt>
               <rdf:li xml:lang="x-default">Accenture Renewable</rdf:li>
            </rdf:Alt>
         </dc:description>
         <dc:title>
            <rdf:Alt>
               <rdf:li xml:lang="x-default">Accenture Renewable</rdf:li>
            </rdf:Alt>
         </dc:title>
         <Iptc4xmpCore:CreatorContactInfo>
            <rdf:Description/>
         </Iptc4xmpCore:CreatorContactInfo>
      </rdf:Description>
   </rdf:RDF>
</x:xmpmeta>
                                                                                                    
                                                                                                    
                                                                                                    
                                                                                                    
                                                                                                    
                                                                                                    
                                                                                                    
                                                                                                    
                                                                                                    
                                                                                                    
                                                                                                    
                                                                                                    
                                                                                                    
                                                                                                    
                                                                                                    
                                                                                                    
                                                                                                    
                                                                                                    
                                                                                                    
                                                                                                    
                           
<?xpacket end="w"?></metadata>
<defs><style>.cls-1{fill:#a100ff;fill-rule:evenodd;}</style></defs><path class="cls-1" d="M45.06,132.27a3.22,3.22,0,0,1-3,3,21.06,21.06,0,0,1-20.9-21V36.45a20.73,20.73,0,0,1,20.9-21H83.15L75.84,8.23c-1.51-1-1.51-3,0-4.52a3.1,3.1,0,0,1,4,0L92,15.76c1.33,1.32,1.42,3,.41,4.07A3.48,3.48,0,0,1,91.27,21L79.88,32.32a2.64,2.64,0,0,1-2,1,3.84,3.84,0,0,1-2-1c-1.51-1-1.51-3,0-4.52l6.69-6.32H42.07a14.69,14.69,0,0,0-14.93,15v77.86a15,15,0,0,0,14.93,15A2.88,2.88,0,0,1,45.06,132.27ZM107.93,15.49a2.88,2.88,0,0,0-3,3,3.22,3.22,0,0,0,3,3,14.69,14.69,0,0,1,14.93,15v77.86a15,15,0,0,1-14.93,15H67.16l6.69-7.06c1.49-1,1.49-3,0-4.47a3,3,0,0,0-4,0L58,129.67c-1.45,1.45-1.46,3.36-.08,4.38a4.08,4.08,0,0,0,.46.47c.82.81,3.39,3.38,11.52,11.53a3.74,3.74,0,0,0,2,1,2.56,2.56,0,0,0,2-1c1.49-1,1.49-3,0-4.47l-6.31-6.31h40.39a21.06,21.06,0,0,0,20.9-21V36.45A20.73,20.73,0,0,0,107.93,15.49ZM95.9,111H54.1a3.21,3.21,0,0,1-3-3V54.31a2.88,2.88,0,0,1,3-3h9v-9a2.86,2.86,0,0,1,3-3H84a2.86,2.86,0,0,1,3,3v9h9a2.87,2.87,0,0,1,3,3v53.75A3.21,3.21,0,0,1,95.9,111Zm-3-53.75H84a3.21,3.21,0,0,1-3-3v-9H69v9a3.21,3.21,0,0,1-3,3h-9v47.78H92.92Zm-10,4.11a2.35,2.35,0,0,0-4,0l-15,14.43a4.73,4.73,0,0,0-1,3.48,4.11,4.11,0,0,0,3,2h11l-10,10a2.31,2.31,0,0,0,0,4,3.79,3.79,0,0,0,2,1,2.6,2.6,0,0,0,2-1L86,80.31a3.07,3.07,0,0,0,1-3.48,3.58,3.58,0,0,0-3-1.5H73.41l9.53-10A2.32,2.32,0,0,0,82.94,61.4Z"/></svg>