<svg id="Layer_1" data-name="Layer 1" xmlns="http://www.w3.org/2000/svg" viewBox="0 0 150 150"><title>Environment</title>
<desc>Environment icon</desc>
<metadata><?xpacket begin="﻿" id="W5M0MpCehiHzreSzNTczkc9d"?>
<x:xmpmeta xmlns:x="adobe:ns:meta/" x:xmptk="Adobe XMP Core 8.0-c001 1.000000, 0000/00/00-00:00:00        ">
   <rdf:RDF xmlns:rdf="http://www.w3.org/1999/02/22-rdf-syntax-ns#">
      <rdf:Description rdf:about=""
            xmlns:ns1="http://ns.accenture.com/1.0/"
            xmlns:dc="http://purl.org/dc/elements/1.1/"
            xmlns:Iptc4xmpCore="http://iptc.org/std/Iptc4xmpCore/1.0/xmlns/">
         <ns1:campaignAsset>no</ns1:campaignAsset>
         <ns1:contentOwner>Accenture</ns1:contentOwner>
         <ns1:rightsManagedAsset>no</ns1:rightsManagedAsset>
         <ns1:reviewDate>2023-04-19T16:07:05.864-06:00</ns1:reviewDate>
         <ns1:contentOwnerTeam>Accenture</ns1:contentOwnerTeam>
         <dc:modified>2022-10-19T20:52:49.879Z</dc:modified>
         <dc:format>image/svg+xml</dc:format>
         <dc:description>
            <rdf:Alt>
               <rdf:li xml:lang="x-default">Environment icon</rdf:li>
            </rdf:Alt>
         </dc:description>
         <dc:title>
            <rdf:Alt>
               <rdf:li xml:lang="x-default">Environment</rdf:li>
            </rdf:Alt>
         </dc:title>
         <Iptc4xmpCore:CreatorContactInfo>
            <rdf:Description/>
         </Iptc4xmpCore:CreatorContactInfo>
      </rdf:Description>
   </rdf:RDF>
</x:xmpmeta>
                                                                                                    
                                                                                                    
                                                                                                    
                                                                                                    
                                                                                                    
                                                                                                    
                                                                                                    
                                                                                                    
                                                                                                    
                                                                                                    
                                                                                                    
                                                                                                    
                                                                                                    
                                                                                                    
                                                                                                    
                                                                                                    
                                                                                                    
                                                                                                    
                                                                                                    
                                                                                                    
                           
<?xpacket end="w"?></metadata>
<defs><style>.cls-1{fill:#a100ff;fill-rule:evenodd;}</style></defs><path class="cls-1" d="M106.9,135.12c-2.45,1.22-4.91,2.45-7.36,2.45H84.82c-9.82,0-17.18-9.81-18.41-18.4h9.82a11.13,11.13,0,0,0,3.68,8.59h4.91a3.75,3.75,0,0,0,0-4.91c-1.23-1.23-2.46-2.46-2.46-3.68H91c0,2.45,1.23,4.91,3.68,7.36l1.23,1.23a4.29,4.29,0,0,0,2.45-1.23,2.3,2.3,0,0,0,0-3.68c0-1.23-1.23-2.46-1.23-3.68h8.59a2.65,2.65,0,0,0,2.46-2.46c0-2.45-1.23-3.68-2.46-3.68H97.08c0-1.22,1.23-1.22,1.23-2.45a3.73,3.73,0,0,0,0-4.91c-1.23,0-3.68,0-3.68,1.23A6.75,6.75,0,0,0,91,113H82.36c0-1.22,1.23-2.45,2.46-3.68a2.61,2.61,0,1,0-3.69-3.68c-3.68,1.23-4.9,4.91-4.9,7.36H66.41c1.23-8.58,8.59-17.17,18.41-17.17H99.54c2.45,0,4.91,0,7.36,1.22l29.44,19.63ZM39.42,41.87H37V12.43h2.45c8.59,0,18.4,3.68,18.4,14.72S48,41.87,39.42,41.87ZM24.7,12.43h6.13V41.87H24.7ZM142.48,114.26,109.35,92.18c-2.45-2.46-6.13-2.46-9.81-2.46H84.82C71.32,89.72,62.73,102,60.28,113H43.1c-13.49,0-24.54-9.81-24.54-23.31A24.62,24.62,0,0,1,43.1,65.18h77.29a20.67,20.67,0,0,0,20.86-20.85c0-11-9.81-20.86-20.86-20.86H62.73c-1.23-11-9.81-17.18-23.31-17.18H22.24c-2.45,0-3.68,1.23-3.68,2.46v8.59H10A3.92,3.92,0,0,0,6.29,21c0,1.22,1.23,2.45,3.69,2.45h8.58v6.14H10c-2.46,0-3.69,1.22-3.69,3.68,0,1.22,1.23,2.45,3.69,2.45h8.58v8.59q0,3.68,3.68,3.68H39.42c13.5,0,22.08-7.36,23.31-18.4h57.66a14.92,14.92,0,0,1,14.73,14.72c0,8.59-6.14,14.72-14.73,14.72H43.1A30.38,30.38,0,0,0,12.43,89.72c0,16,13.5,29.45,30.67,29.45H60.28c2.45,12.27,11,24.54,24.54,24.54H99.54a23,23,0,0,0,9.81-2.46h1.23l31.9-22.08c1.23-1.23,1.23-1.23,1.23-2.46S143.71,114.26,142.48,114.26Z"/></svg>