<svg id="Layer_1" data-name="Layer 1" xmlns="http://www.w3.org/2000/svg" viewBox="0 0 150 150"><title>Sustainability Accenture</title>
<desc>Sustainability Accenture</desc>
<metadata><?xpacket begin="﻿" id="W5M0MpCehiHzreSzNTczkc9d"?>
<x:xmpmeta xmlns:x="adobe:ns:meta/" x:xmptk="Adobe XMP Core 8.0-c001 1.000000, 0000/00/00-00:00:00        ">
   <rdf:RDF xmlns:rdf="http://www.w3.org/1999/02/22-rdf-syntax-ns#">
      <rdf:Description rdf:about=""
            xmlns:ns1="http://ns.accenture.com/1.0/"
            xmlns:dc="http://purl.org/dc/elements/1.1/"
            xmlns:Iptc4xmpCore="http://iptc.org/std/Iptc4xmpCore/1.0/xmlns/">
         <ns1:campaignAsset>no</ns1:campaignAsset>
         <ns1:contentOwner>Accenture</ns1:contentOwner>
         <ns1:rightsManagedAsset>no</ns1:rightsManagedAsset>
         <ns1:reviewDate>2023-04-28T14:22:53.264-03:00</ns1:reviewDate>
         <ns1:contentOwnerTeam>Accenture</ns1:contentOwnerTeam>
         <dc:format>image/svg+xml</dc:format>
         <dc:modified>2022-10-28T17:24:22.483Z</dc:modified>
         <dc:description>
            <rdf:Alt>
               <rdf:li xml:lang="x-default">Sustainability Accenture</rdf:li>
            </rdf:Alt>
         </dc:description>
         <dc:title>
            <rdf:Alt>
               <rdf:li xml:lang="x-default">Sustainability Accenture</rdf:li>
            </rdf:Alt>
         </dc:title>
         <Iptc4xmpCore:CreatorContactInfo>
            <rdf:Description/>
         </Iptc4xmpCore:CreatorContactInfo>
      </rdf:Description>
   </rdf:RDF>
</x:xmpmeta>
                                                                                                    
                                                                                                    
                                                                                                    
                                                                                                    
                                                                                                    
                                                                                                    
                                                                                                    
                                                                                                    
                                                                                                    
                                                                                                    
                                                                                                    
                                                                                                    
                                                                                                    
                                                                                                    
                                                                                                    
                                                                                                    
                                                                                                    
                                                                                                    
                                                                                                    
                                                                                                    
                           
<?xpacket end="w"?></metadata>
<defs><style>.cls-1{fill:#a100ff;fill-rule:evenodd;}</style></defs><path class="cls-1" d="M142,109.48c-6.55-6.6-12.64-8.48-19.66-6.6,0,0,0,0-20.86,7-.73-3.61-4-6.8-9.65-6.8H76.36C72.15,99.34,62.8,91.86,49.71,91.86H35.43V89a2.7,2.7,0,0,0-2.81-2.8H10.18A3,3,0,0,0,7.38,89v44.82a3,3,0,0,0,2.8,2.8H32.62a2.7,2.7,0,0,0,2.81-2.8v-4.5c5.74,1.9,10.85,3.52,15.24,5.13,14,5.18,21.53,7.53,28.56,7.53,8.42,0,15.91-3.77,32.3-12.71,7.49-3.77,16.85-8.95,29.49-15.54.94-.48,1.41-1,1.41-1.89A2.07,2.07,0,0,0,142,109.48ZM29.82,131H13V91.79H29.82Zm78.9-6.46c-27.62,15.07-27.62,15.07-56.18,4.71-4.76-1.75-10.38-3.89-17.11-6.07V97.47H49.71c11.69,0,20.57,7.48,23.38,10.29a3.59,3.59,0,0,0,1.87.93H91.79c3.27,0,4.21,1.4,4.21,2.81a2.57,2.57,0,0,1-.06.55,2.31,2.31,0,0,0-.59,1.14c-.6.65-1.69,1.11-3.56,1.11H60.93a2.81,2.81,0,0,0,0,5.61H91.79c4,0,6.77-1.58,8.32-3.76l23.59-7.61c3.75-1.42,7-1,11.24,2.35C124.17,116.07,115.74,120.78,108.72,124.55ZM47.16,78.79A2.59,2.59,0,0,0,48.56,75C45.75,69,43.88,62.86,43.88,55.83c0-23,19.19-42.18,42.13-42.18.68,0,1.34.07,2,.1-4.58,2.06-8.64,5.08-8.39,9.28a10.25,10.25,0,0,0,3.75,6.55,10.26,10.26,0,0,0,6.56.47v6.09a6,6,0,0,0-2.81.46c-2.81.47-6.09,1.41-8,0-.47-.46-.93-1.4-1.4-1.87-2.34-1.87-6.09-1.87-11.24-.94C54.34,36.14,54.34,51.58,54.34,52.05c0,3.75,1.87,10.77,8.43,10.77h3.28c2.34-.47,4.68-.47,5.15,0s.47,1.4.47,2.81c0,.93.47,1.4.94,2.34a20.81,20.81,0,0,1,3.28,3.74c0,.47-.47.94-.94,1.41A13.6,13.6,0,0,0,74,77.33C74,79.67,77.76,90,82.44,90,90.87,90,96,86.23,97,79.2a15.63,15.63,0,0,0,5.16-3.74A5.81,5.81,0,0,0,104,71.71a9.14,9.14,0,0,0-2.34-4.21l1.4-1.4c3.28-3.75,10.31-10.77,4.69-15.92-.47-.94-1.88-.94-2.81-.47a5.11,5.11,0,0,1-2.35.47,39.75,39.75,0,0,0-2.34-5.62,11.1,11.1,0,0,1,8.9-1.4,2.83,2.83,0,0,0,1.88-.47c5-2.37,7.93-7.1,9.53-10.87a41.87,41.87,0,0,1,7.59,24c0,15-7.49,29.05-20.6,36.55a3.65,3.65,0,0,0-.93,3.75,4,4,0,0,0,2.81,1.4,1.74,1.74,0,0,0,1.4-.46c14-8.44,22.94-24.37,22.94-41.24A47.75,47.75,0,0,0,122,24.45a2.57,2.57,0,0,0-.5-.55A47.43,47.43,0,0,0,86,8a48,48,0,0,0-47.75,47.8,47.32,47.32,0,0,0,5.15,21.55A3.14,3.14,0,0,0,47.16,78.79Zm69.19-52.11c-.65,2.51-2.48,8-6.74,10.86-7-1.4-14,2.34-15.93,4.21a5.93,5.93,0,0,0-.46,3.75c.46.47.93,1.4,1.87,1.4C96,47.84,97,50.65,97.43,53a1.6,1.6,0,0,0,.47.93c1.87,1.88,4.22,1.88,6.09,1.88-.47,1.87-3.75,5.15-5.15,6.55C96.5,64.69,95.09,66.1,95.09,68s1.41,2.81,2.34,3.74h.47A15.67,15.67,0,0,1,93.22,75a3.11,3.11,0,0,0-1.88,2.34c0,1.87,0,7-8.43,7-.94-.93-3.28-5.62-3.28-7a2.28,2.28,0,0,1,.47-1.4c.47-1.41,1.41-2.81,1.41-4.22,0-2.34-2.35-5.15-4.22-7A7.79,7.79,0,0,0,75,59.07c-2.34-2.34-5.62-2.34-9.37-1.87H62.77C60,57.2,60,52.52,60,52.05c0,0,0-11.23,7.49-12.64A17.92,17.92,0,0,1,74,38.94c0,.47.47.94.47,1.41,4.21,3.74,9.84,2.34,14,1.4,1.41,0,2.81-.47,3.75-.47a3,3,0,0,0,2.81-2.34C96,31,95.56,26.3,93.22,24.43a3.54,3.54,0,0,0-4.22,0,2.94,2.94,0,0,1-2.81,0,3.54,3.54,0,0,1-.94-1.87c0-1.39,6.4-5,14.67-6.49A42.28,42.28,0,0,1,116.35,26.68Z"/></svg>