<svg width="18" height="18" viewBox="0 0 18 18" fill="none" xmlns="http://www.w3.org/2000/svg">
<path fill-rule="evenodd" clip-rule="evenodd" d="M2.1875 0.40625H15C15.5802 0.40625 16.1366 0.636718 16.5468 1.04695C16.957 1.45719 17.1875 2.01359 17.1875 2.59375V15.4062C17.1875 15.9864 16.957 16.5428 16.5468 16.953C16.1366 17.3633 15.5802 17.5938 15 17.5938H2.1875C1.60734 17.5938 1.05094 17.3633 0.640704 16.953C0.230468 16.5428 0 15.9864 0 15.4062V2.59375C0 2.01359 0.230468 1.45719 0.640704 1.04695C1.05094 0.636718 1.60734 0.40625 2.1875 0.40625ZM7.27374 9.51557L3.02677 4H6.3L9.08424 7.61591L12.5301 4H13.492L9.51398 8.17424L14 14H10.7268L7.70366 10.0737L3.96192 14H3L7.27374 9.51557ZM5.94502 4.68815H4.44132L11.0816 13.3119H12.5853L5.94502 4.68815Z" fill="white"/>
</svg>
