<svg width="18" height="18" viewBox="0 0 18 18" fill="none" xmlns="http://www.w3.org/2000/svg">
<path d="M11.687 8.84352C11.687 10.4139 10.4139 11.687 8.84352 11.687C7.27317 11.687 6 10.4139 6 8.84352C6 7.27317 7.27317 6 8.84352 6C10.4139 6 11.687 7.27317 11.687 8.84352Z" fill="white"/>
<path d="M13.6461 0.25H4.04136C1.95068 0.25 0.25 1.95068 0.25 4.04136V13.6461C0.25 15.7368 1.95068 17.4375 4.04136 17.4375H13.6461C15.7368 17.4375 17.4375 15.7368 17.4375 13.6461V4.04136C17.4375 1.95068 15.7368 0.25 13.6461 0.25ZM8.84375 13.5829C6.23053 13.5829 4.10455 11.457 4.10455 8.84375C4.10455 6.23053 6.23053 4.10455 8.84375 4.10455C11.457 4.10455 13.5829 6.23053 13.5829 8.84375C13.5829 11.457 11.457 13.5829 8.84375 13.5829ZM14.278 4.35731C13.7545 4.35731 13.3302 3.933 13.3302 3.40947C13.3302 2.88593 13.7545 2.46163 14.278 2.46163C14.8016 2.46163 15.2259 2.88593 15.2259 3.40947C15.2259 3.933 14.8016 4.35731 14.278 4.35731Z" fill="white"/>
</svg>
