<svg width="18" height="18" viewBox="0 0 18 18" fill="none" xmlns="http://www.w3.org/2000/svg">
<path d="M15.4062 0.40625H2.59375C2.01359 0.40625 1.45719 0.636718 1.04695 1.04695C0.636718 1.45719 0.40625 2.01359 0.40625 2.59375V15.4062C0.40625 15.9864 0.636718 16.5428 1.04695 16.953C1.45719 17.3633 2.01359 17.5938 2.59375 17.5938H15.4062C15.9864 17.5938 16.5428 17.3633 16.953 16.953C17.3633 16.5428 17.5938 15.9864 17.5938 15.4062V2.59375C17.5938 2.01359 17.3633 1.45719 16.953 1.04695C16.5428 0.636718 15.9864 0.40625 15.4062 0.40625ZM6.21438 14.223H3.77688V7.25898H6.21438V14.223ZM4.99563 6.21438C4.75458 6.21438 4.51895 6.1429 4.31852 6.00898C4.1181 5.87506 3.96189 5.68472 3.86965 5.46202C3.7774 5.23932 3.75327 4.99427 3.80029 4.75786C3.84732 4.52144 3.96339 4.30428 4.13384 4.13384C4.30428 3.96339 4.52144 3.84732 4.75786 3.80029C4.99427 3.75327 5.23932 3.7774 5.46202 3.86965C5.68472 3.96189 5.87506 4.1181 6.00898 4.31852C6.1429 4.51895 6.21438 4.75458 6.21438 4.99563C6.21438 5.31884 6.08598 5.62883 5.85744 5.85738C5.6289 6.08594 5.31892 6.21435 4.9957 6.21438H4.99563ZM14.223 14.223H12.1338V10.8298C12.1338 10.0205 12.044 8.97957 10.9348 8.97957C9.80863 8.97957 9.63652 9.86109 9.63652 10.7712V14.223H7.60719V7.25898H9.54883V8.19887H9.57875C9.86781 7.65012 10.5744 7.25898 11.6271 7.25898C13.8177 7.25898 14.223 8.5168 14.223 10.3957V14.223Z" fill="white"/>
</svg>
