<svg width="18" height="18" viewBox="0 0 18 18" fill="none" xmlns="http://www.w3.org/2000/svg">
<path d="M15.4062 0.40625H2.59375C2.01359 0.40625 1.45719 0.636718 1.04695 1.04695C0.636718 1.45719 0.40625 2.01359 0.40625 2.59375V15.4062C0.40625 15.9864 0.636718 16.5428 1.04695 16.953C1.45719 17.3633 2.01359 17.5938 2.59375 17.5938H8.86992V10.4423H7.43965V7.5818H8.85809V6.28906C8.85809 5.11906 9.41543 3.29117 11.8682 3.29117L14.0778 3.30004V5.75086H12.4732C12.2123 5.75086 11.841 5.88078 11.841 6.43805V7.58199H14.1143L13.8533 10.4425H11.7305V17.5938H15.4062C15.6935 17.5938 15.978 17.5372 16.2434 17.4272C16.5088 17.3173 16.7499 17.1562 16.953 16.953C17.1562 16.7499 17.3173 16.5088 17.4272 16.2434C17.5372 15.978 17.5938 15.6935 17.5938 15.4062V2.59375C17.5938 2.30648 17.5372 2.02203 17.4272 1.75663C17.3173 1.49123 17.1562 1.25008 16.953 1.04695C16.7499 0.843826 16.5088 0.682696 16.2434 0.572763C15.978 0.462831 15.6935 0.40625 15.4062 0.40625Z" fill="white"/>
</svg>
