<svg width="18" height="14" viewBox="0 0 18 14" fill="none" xmlns="http://www.w3.org/2000/svg">
<path d="M1.91675 13.6668C1.58341 13.6668 1.29175 13.5418 1.04175 13.2918C0.791748 13.0418 0.666748 12.7502 0.666748 12.4168V1.5835C0.666748 1.25016 0.791748 0.958496 1.04175 0.708496C1.29175 0.458496 1.58341 0.333496 1.91675 0.333496H16.0834C16.4167 0.333496 16.7084 0.458496 16.9584 0.708496C17.2084 0.958496 17.3334 1.25016 17.3334 1.5835V12.4168C17.3334 12.7502 17.2084 13.0418 16.9584 13.2918C16.7084 13.5418 16.4167 13.6668 16.0834 13.6668H1.91675ZM9.00008 7.37516L1.91675 2.72933V12.4168H16.0834V2.72933L9.00008 7.37516ZM9.00008 6.12516L16.0001 1.5835H2.02091L9.00008 6.12516ZM1.91675 2.72933V1.5835V12.4168V2.72933Z" fill="#ffffff"/>
</svg>
