<svg width="14" height="18" viewBox="0 0 14 18" fill="none" xmlns="http://www.w3.org/2000/svg">
<path d="M6.99992 8.7915C7.4027 8.7915 7.74645 8.64914 8.03117 8.36442C8.31589 8.0797 8.45825 7.73595 8.45825 7.33317C8.45825 6.93039 8.31589 6.58664 8.03117 6.30192C7.74645 6.0172 7.4027 5.87484 6.99992 5.87484C6.59714 5.87484 6.25339 6.0172 5.96867 6.30192C5.68395 6.58664 5.54158 6.93039 5.54158 7.33317C5.54158 7.73595 5.68395 8.0797 5.96867 8.36442C6.25339 8.64914 6.59714 8.7915 6.99992 8.7915ZM6.99992 15.6873C8.84714 14.0068 10.2117 12.4825 11.0937 11.1144C11.9756 9.74637 12.4166 8.5415 12.4166 7.49984C12.4166 5.86095 11.8923 4.52067 10.8437 3.479C9.79506 2.43734 8.51381 1.9165 6.99992 1.9165C5.48603 1.9165 4.20478 2.43734 3.15617 3.479C2.10756 4.52067 1.58325 5.86095 1.58325 7.49984C1.58325 8.5415 2.03464 9.74637 2.93742 11.1144C3.8402 12.4825 5.19436 14.0068 6.99992 15.6873ZM6.99992 17.3332C4.76381 15.4304 3.09367 13.663 1.9895 12.0311C0.885335 10.3991 0.333252 8.88873 0.333252 7.49984C0.333252 5.4165 1.00339 3.75678 2.34367 2.52067C3.68395 1.28456 5.23603 0.666504 6.99992 0.666504C8.76381 0.666504 10.3159 1.28456 11.6562 2.52067C12.9964 3.75678 13.6666 5.4165 13.6666 7.49984C13.6666 8.88873 13.1145 10.3991 12.0103 12.0311C10.9062 13.663 9.23603 15.4304 6.99992 17.3332Z" fill="#ffffff"/>
</svg>
