<svg width="16" height="16" viewBox="0 0 16 16" fill="none" xmlns="http://www.w3.org/2000/svg">
<path d="M14.1667 7.854C14.0972 6.17345 13.4792 4.74984 12.3125 3.58317C11.1458 2.4165 9.72222 1.79845 8.04167 1.729V0.479004C9.04167 0.506782 9.98264 0.718587 10.8646 1.11442C11.7465 1.51025 12.5208 2.0415 13.1875 2.70817C13.8542 3.37484 14.3854 4.14914 14.7812 5.03109C15.1771 5.91303 15.3889 6.854 15.4167 7.854H14.1667ZM10.6458 7.854C10.5764 7.15956 10.2986 6.57275 9.8125 6.09359C9.32639 5.61442 8.73611 5.34012 8.04167 5.27067V4.02067C9.08333 4.09012 9.96875 4.48595 10.6979 5.20817C11.4271 5.93039 11.8264 6.81234 11.8958 7.854H10.6458ZM14.5625 15.4998C12.8681 15.4998 11.184 15.0832 9.51042 14.2498C7.83681 13.4165 6.33333 12.3332 5 10.9998C3.66667 9.6665 2.58333 8.16303 1.75 6.48942C0.916667 4.81581 0.5 3.13178 0.5 1.43734C0.5 1.17345 0.590278 0.951226 0.770833 0.770671C0.951389 0.590115 1.17361 0.499837 1.4375 0.499837H4.35417C4.54861 0.499837 4.71875 0.56581 4.86458 0.697754C5.01042 0.829698 5.10417 1.00678 5.14583 1.229L5.70833 3.854C5.73611 4.04845 5.73264 4.22553 5.69792 4.38525C5.66319 4.54498 5.59028 4.68039 5.47917 4.7915L3.39583 6.89567C4.17361 8.18734 5.04514 9.31234 6.01042 10.2707C6.97569 11.229 8.06944 12.0415 9.29167 12.7082L11.2708 10.6665C11.4097 10.5137 11.5694 10.4061 11.75 10.3436C11.9306 10.2811 12.1111 10.2707 12.2917 10.3123L14.7708 10.854C14.9792 10.8957 15.1528 10.9998 15.2917 11.1665C15.4306 11.3332 15.5 11.5276 15.5 11.7498V14.5623C15.5 14.8262 15.4097 15.0484 15.2292 15.229C15.0486 15.4096 14.8264 15.4998 14.5625 15.4998ZM2.77083 5.74984L4.45833 4.0415L3.97917 1.74984H1.75C1.75 2.2915 1.83333 2.88525 2 3.53109C2.16667 4.17692 2.42361 4.9165 2.77083 5.74984ZM10.4583 13.3123C11.0278 13.5762 11.6458 13.7915 12.3125 13.9582C12.9792 14.1248 13.625 14.2221 14.25 14.2498V12.0207L12.1042 11.5832L10.4583 13.3123Z" fill="#ffffff"/>
</svg>
