<svg id="Layer_1" data-name="Layer 1" xmlns="http://www.w3.org/2000/svg" viewBox="0 0 150 150"><title>Eco-Mindset-Accenture</title>
<desc>Eco-Mindset-Accenture</desc>
<metadata><?xpacket begin="﻿" id="W5M0MpCehiHzreSzNTczkc9d"?>
<x:xmpmeta xmlns:x="adobe:ns:meta/" x:xmptk="Adobe XMP Core 6.0-c002 79.164519, 2020/08/25-17:54:00        ">
   <rdf:RDF xmlns:rdf="http://www.w3.org/1999/02/22-rdf-syntax-ns#">
      <rdf:Description rdf:about=""
            xmlns:dc="http://purl.org/dc/elements/1.1/"
            xmlns:ns1="http://ns.accenture.com/1.0/"
            xmlns:Iptc4xmpCore="http://iptc.org/std/Iptc4xmpCore/1.0/xmlns/">
         <dc:format>image/svg+xml</dc:format>
         <dc:modified>2022-08-13T11:22:11.722Z</dc:modified>
         <dc:description>
            <rdf:Alt>
               <rdf:li xml:lang="x-default">Eco-Mindset-Accenture</rdf:li>
            </rdf:Alt>
         </dc:description>
         <dc:title>
            <rdf:Alt>
               <rdf:li xml:lang="x-default">Eco-Mindset-Accenture</rdf:li>
            </rdf:Alt>
         </dc:title>
         <ns1:rightsManagedAsset>no</ns1:rightsManagedAsset>
         <ns1:reviewDate>2023-02-13T18:18:32.131+08:00</ns1:reviewDate>
         <ns1:contentOwnerTeam>Accenture</ns1:contentOwnerTeam>
         <ns1:campaignAsset>no</ns1:campaignAsset>
         <ns1:contentOwner>Accenture</ns1:contentOwner>
         <Iptc4xmpCore:CreatorContactInfo>
            <rdf:Description/>
         </Iptc4xmpCore:CreatorContactInfo>
      </rdf:Description>
   </rdf:RDF>
</x:xmpmeta>
                                                                                                    
                                                                                                    
                                                                                                    
                                                                                                    
                                                                                                    
                                                                                                    
                                                                                                    
                                                                                                    
                                                                                                    
                                                                                                    
                                                                                                    
                                                                                                    
                                                                                                    
                                                                                                    
                                                                                                    
                                                                                                    
                                                                                                    
                                                                                                    
                                                                                                    
                                                                                                    
                           
<?xpacket end="w"?></metadata>
<defs><style>.cls-1{fill:#a100ff;fill-rule:evenodd;}</style></defs><path class="cls-1" d="M131,62.7c-2-3.45-4.42-7.39-4.42-8.86,0-31-28.48-49.72-56.48-49.72-33.4,0-59.43,26.09-59.43,59.56,0,21.66,7.86,37.41,23.09,47.25v32a2.84,2.84,0,0,0,2.94,3H95.61a2.84,2.84,0,0,0,3-3V125.7c10.31-.5,17.19-1.48,21.61-5.91,4.91-4.92,5.89-19.69,5.89-26.58h6.39c2-.49,4.42-1.48,5.4-3.44a5.45,5.45,0,0,0,1.47-4.43v-.5C139.81,78,134.9,70.08,131,62.7Zm2.46,22.64v1c-.49.49-1,.49-1.47,1-3.44,0-8.85-.49-8.85-.49a3.66,3.66,0,0,0-2,1,3.71,3.71,0,0,0-1,2c0,8.86-1,22.64-3.93,25.59-3.44,3.45-8.35,4.43-19.65,4.43h-1c-1,0-1.47,0-2,.49-.49,1-1,1.48-1,2.46V140h-53V109a2.71,2.71,0,0,0-1.47-2.46C23.9,98.13,16.54,83.86,16.54,63.68A53.09,53.09,0,0,1,70.07,10c25.05,0,50.59,16.73,50.59,43.81,0,2.46,2,5.9,4.91,11.81,3.44,5.9,8.35,13.78,7.86,18.7Zm-43.24-58a3.21,3.21,0,0,0-2.47,1c-4.94,3.94-10.86,5.91-16.29,7.39C65,37.65,58.59,39.62,53.66,45,48.72,51,46.75,56.86,48.23,61.78c.85,4.26,3.56,7.78,8.42,10.56A111.74,111.74,0,0,0,45.91,98.71c-.49,1.48.49,3,2.46,3.45h.5a3.12,3.12,0,0,0,3-2.46,101,101,0,0,1,9.33-23c2.94,4,6.2,6.43,9.78,7.22h2c4.94,0,10.37-3.44,15.8-9.35,7.4-8.87,10.37-32.51,4-45.81A10.9,10.9,0,0,0,90.19,27.31ZM83.77,70.65c-4,5.41-8.39,7.87-11.85,7.38-2.78-.46-5.12-2.69-7.44-7A101.35,101.35,0,0,1,81.86,50a3,3,0,0,0,0-3.94,2.61,2.61,0,0,0-3.94-.5A104.47,104.47,0,0,0,59.78,67.13c-3.27-2-5.34-4.1-6.12-6.83-1-3.94,2-8.37,4.44-11.32C62.05,45,67,43.56,72.91,41.59c4.94-1.48,10.37-3,15.8-6.4C92.16,46.51,89.7,64.24,83.77,70.65Z"/></svg>