<svg id="Layer_1" data-name="Layer 1" xmlns="http://www.w3.org/2000/svg" viewBox="0 0 150 150"><defs><style>.cls-1{fill:#a100ff;fill-rule:evenodd;}</style></defs><path class="cls-1" d="M129.31,87.66A10.62,10.62,0,0,0,140.14,77a10.83,10.83,0,0,0-21.66,0,11,11,0,0,0,.37,2.73L99.7,90.79a10.94,10.94,0,0,0-7.61-3.13A10.56,10.56,0,0,0,81.61,95.6H62.25a10.92,10.92,0,0,0-10.44-7.94A10.54,10.54,0,0,0,41,98.19a11.38,11.38,0,0,0,.48,3.13L15.29,118.37V75.8L48.42,56.06a10.73,10.73,0,0,0,16.73-1.74l21.6,6.73v.07c0,6.23,4.51,10.68,10.83,10.68a10.62,10.62,0,0,0,10.83-10.68A10.43,10.43,0,0,0,106,54.51l18.44-22.42a10.57,10.57,0,0,0,4.92,1.26,10.9,10.9,0,0,0,10.83-10.68,10.83,10.83,0,0,0-21.66,0,10.35,10.35,0,0,0,1.66,5.54l-18.54,23A10.76,10.76,0,0,0,88.07,56L66.83,49.41c0-.27.08-.53.08-.8a10.83,10.83,0,0,0-21.66,0,10,10,0,0,0,.51,3L15.29,69.77V15.87a2.88,2.88,0,0,0-2.72-2.65,2.88,2.88,0,0,0-2.71,2.65V135.35A2.59,2.59,0,0,0,12.57,138H134.68a2.59,2.59,0,0,0,2.72-2.66,2.88,2.88,0,0,0-2.72-2.65H15.29v-7.88s.11,0,.15-.07l29.13-18.57a11.08,11.08,0,0,0,7.24,2.54,10.62,10.62,0,0,0,10.49-7.94H81.57c1.09,4.74,5.14,7.94,10.52,7.94a10.55,10.55,0,0,0,10.83-10.53,9.64,9.64,0,0,0-.39-2.58L121.75,84.7A11,11,0,0,0,129.31,87.66Zm0-70.33a5.18,5.18,0,0,1,5.42,5.34A5.45,5.45,0,0,1,129.31,28a5.33,5.33,0,0,1-3-.91,3.28,3.28,0,0,0-.67-1.1,3.14,3.14,0,0,0-.75-.29,5.31,5.31,0,0,1-1-3A5.18,5.18,0,0,1,129.31,17.33ZM97.58,55.78a5,5,0,0,1,2.68.86,2.09,2.09,0,0,0,.36.37,1.39,1.39,0,0,0,.43.23A5.38,5.38,0,0,1,103,61.12a5.45,5.45,0,0,1-5.41,5.34,5.18,5.18,0,0,1-5.42-5.34A5.45,5.45,0,0,1,97.58,55.78ZM56.08,43.27a5.18,5.18,0,0,1,5.42,5.34,5.42,5.42,0,0,1-10.83,0A5.17,5.17,0,0,1,56.08,43.27Zm73.23,28.37A5.45,5.45,0,0,1,134.73,77a5.18,5.18,0,0,1-5.42,5.34,5.28,5.28,0,0,1-4.47-2.2,3.83,3.83,0,0,0-.1-.59,3.41,3.41,0,0,0-.37-.25,5.73,5.73,0,0,1-.48-2.3A5.45,5.45,0,0,1,129.31,71.64Zm-77.5,31.81a5.13,5.13,0,0,1-5.41-5.26,5.4,5.4,0,0,1,5.41-5.26,5.74,5.74,0,0,1,5.42,5.26A5.41,5.41,0,0,1,51.81,103.45Zm40.28,0a5.13,5.13,0,0,1-5.4-5c0-.09.06-.15.06-.25a1.41,1.41,0,0,0-.06-.22,5.41,5.41,0,0,1,5.4-5,5.74,5.74,0,0,1,5.41,5.26A5.41,5.41,0,0,1,92.09,103.45Z"/></svg>