<svg id="Layer_1" data-name="Layer 1" xmlns="http://www.w3.org/2000/svg" viewBox="0 0 150 150"><metadata><?xpacket begin="﻿" id="W5M0MpCehiHzreSzNTczkc9d"?>
<x:xmpmeta xmlns:x="adobe:ns:meta/" x:xmptk="Adobe XMP Core 6.0-c002 79.164519, 2020/08/25-17:54:00        ">
   <rdf:RDF xmlns:rdf="http://www.w3.org/1999/02/22-rdf-syntax-ns#">
      <rdf:Description rdf:about=""
            xmlns:dc="http://purl.org/dc/elements/1.1/"
            xmlns:tiff="http://ns.adobe.com/tiff/1.0/"
            xmlns:ns1="http://ns.accenture.com/1.0/">
         <dc:modified>2022-08-16T20:09:32.049Z</dc:modified>
         <dc:format>image/svg+xml</dc:format>
         <tiff:ImageLength>150</tiff:ImageLength>
         <tiff:ImageWidth>150</tiff:ImageWidth>
         <ns1:reviewDate>2023-01-14T14:34:52.678Z</ns1:reviewDate>
      </rdf:Description>
   </rdf:RDF>
</x:xmpmeta>
                                                                                                    
                                                                                                    
                                                                                                    
                                                                                                    
                                                                                                    
                                                                                                    
                                                                                                    
                                                                                                    
                                                                                                    
                                                                                                    
                                                                                                    
                                                                                                    
                                                                                                    
                                                                                                    
                                                                                                    
                                                                                                    
                                                                                                    
                                                                                                    
                                                                            
<?xpacket end="w"?></metadata>
<defs><style>.cls-1{fill:#a100ff;fill-rule:evenodd;}</style></defs><path class="cls-1" d="M55.8,70.79h1.91C62.25,70,66.42,67,69.64,61.6A115.14,115.14,0,0,1,80.89,89.45a3,3,0,0,0,2.88,2.4,3.24,3.24,0,0,0,2.88-1.92,75.76,75.76,0,0,1,8.21-15.19c3.08,4.66,6.72,6.35,9.43,6.74h1.93c4.8,0,9.61-2.41,13.94-6.76,7.22-7.24,11.07-27,5.77-38.62-.48-1-1.44-1.45-1.92-1.93a3.6,3.6,0,0,0-2.4.48,35.56,35.56,0,0,1-14.91,6.28c-4.33,1.45-8.66,2.41-13,5.31-5.29,3.38-8.18,8.21-8.18,12.55,0,3.12,1.28,7.07,6,11.07a73.29,73.29,0,0,0-6.81,11,155.7,155.7,0,0,0-10.9-23.43c5.59-3.23,9-7.45,10.26-12,1.44-5.76-1-12-6.71-18.72-5.28-6.24-12.47-8.64-20.14-11-6.72-1.92-13.43-3.84-19.19-9.13A5.22,5.22,0,0,0,35.65,6a4,4,0,0,0-2.4,1.45c-7.67,14.88-3.83,42.24,4.8,52.81C43.81,67,50,70.79,55.8,70.79Zm35.5-12c0-2.41,2.41-5.31,5.78-7.72s7.21-3.38,11.06-4.35a43.06,43.06,0,0,0,13.47-5.31c2.4,9.66-.49,24.14-5.78,29.45-2.4,2.9-6.73,5.79-10.58,4.83-2.52-.42-4.67-2.32-6.45-6a40.81,40.81,0,0,1,12.36-10c1.44-.48,1.92-2.4,1.44-3.84-1-1.44-2.4-1.92-3.85-1A44.59,44.59,0,0,0,95.33,65.3C93.31,63.71,91.3,61.4,91.3,58.79ZM37.09,13.18C43.33,17.5,50,19.42,55.8,21.34c6.71,1.92,13,3.84,17.26,9.12,2.88,3.36,6.24,8.64,5.28,13.44-.79,3.16-3.23,6-7.53,8.49A122.71,122.71,0,0,0,49.66,27a2.54,2.54,0,0,0-3.84.48c-1.44,1-1,2.88,0,3.84A113.72,113.72,0,0,1,66.19,55.72c-2.83,5.57-5.67,8.83-9.43,9.31s-9.12-2.4-14.39-8.64C35.65,48.22,32.3,26.62,37.09,13.18Zm106.14,97.69c-6.72-6.73-12.48-8.65-20.16-6.73l-20.83,7.08c-.68-3.78-4-7.18-9.95-7.18H76.42C72.09,100.19,62.48,92.5,49,92.5H34.65v-3a2.77,2.77,0,0,0-2.88-2.88H8.7a3.1,3.1,0,0,0-2.89,2.88v46.09a3.1,3.1,0,0,0,2.89,2.88H31.77a2.77,2.77,0,0,0,2.88-2.88v-4.37c6,1.86,11.07,3.47,15.45,5.07C64,141.62,72.18,144,79.38,144c8.64,0,16.32-3.85,33.13-13,7.68-3.84,17.28-9.13,30.24-15.85,1-.48,1.44-1,1.44-1.93S144.19,111.35,143.23,110.87ZM11.58,132.76V92.43H28.89v2.68a1.34,1.34,0,0,0-.07.27,1.43,1.43,0,0,0,.07.28v37.1Zm98.05-6.51C81.3,141.14,81.3,141.14,52,131.05c-5.27-1.76-10.62-3.92-17.37-6.12V98.27H49c12,0,20.68,7.21,24.05,10.57a3.64,3.64,0,0,0,1.92,1H92.29c2.88,0,4.32,1.45,4.32,2.89a2.28,2.28,0,0,1-.23.94,2.89,2.89,0,0,0-.49.63,4.66,4.66,0,0,1-3.6,1.31H60.55a2.89,2.89,0,0,0,0,5.77H92.29c3.94,0,6.7-1.5,8.33-3.61L125,109.91c3.84-1.44,7.2-1,11.52,2.4C125.47,117.6,116.83,122.4,109.63,126.25Z"/></svg>